# xmcd
# 
# Track frame offsets:
#     150
#     16782
#     34037
#     71962
# 
# Disc length: 1227
# 
# Revision: 0
# Processed by: cddbd v1.5.2PL0 Copyright (c) Steve Scherf et al.
# Submitted via: fre:ac v1.0.17
# 
DISCID=2c04c904
DTITLE=Benjamin Diamond - In Your Arms
DYEAR=2000
DGENRE=Other
TTITLE0=In Your Arms (Joey Negro Z Mix - Radio Edit)
TTITLE1=In Your Arms (Radio Edit)
TTITLE2=In Your Arms (Joey Negro Z Mix)
TTITLE3=In Your Arms (Curtis Remix)
EXTD=
EXTT0=
EXTT1=
EXTT2=
EXTT3=
PLAYORDER=
